<svg xmlns="http://www.w3.org/2000/svg"><symbol viewBox="0 0 932.15 932.15" id="icon_eye"><title>eye</title><g fill="currentColor"><path d="M466.075 161.525c-205.6 0-382.8 121.2-464.2 296.1-2.5 5.3-2.5 11.5 0 16.9 81.4 174.9 258.6 296.1 464.2 296.1s382.8-121.2 464.2-296.1c2.5-5.3 2.5-11.5 0-16.9-81.4-174.9-258.6-296.1-464.2-296.1zm0 514.7c-116.1 0-210.1-94.1-210.1-210.1 0-116.1 94.1-210.1 210.1-210.1 116.1 0 210.1 94.1 210.1 210.1s-94.1 210.1-210.1 210.1z"/><circle cx="466.075" cy="466.025" r="134.5"/></g></symbol><symbol viewBox="0 0 52 52" id="icon_location"><title>location</title><path fill="currentColor" d="M38.853 5.324c-7.098-7.098-18.607-7.098-25.706 0C6.75 11.72 6.03 23.764 11.46 31L26 52l14.54-21c5.43-7.237 4.71-19.28-1.687-25.676zM26.177 24c-3.314 0-6-2.686-6-6s2.686-6 6-6 6 2.686 6 6-2.686 6-6 6z"/></symbol><symbol viewBox="0 0 1800 1800" id="icon_phone"><title>phone</title><path fill="currentColor" d="M153 88s89-101 171-61c82 39 381 355 378 407-3 53-79 175-128 184-50 10-60 56-50 83 19 174 484 549 530 559 46 9 167 13 181-33 13-46 16-115 78-115 63 0 441 256 457 358 17 102-82 278-212 297-128 20-292 19-491-54-199-72-513-350-621-457-109-107-313-388-352-486-40-99-80-327-62-421 14-138 79-220 121-261z"/></symbol><symbol viewBox="0 0 47.255 47.255" id="icon_right-arrow"><title>right-arrow</title><path fill="currentColor" d="M12.314 47.255c-.256 0-.512-.098-.707-.293-.39-.39-.39-1.023 0-1.414l21.92-21.92-21.92-21.92c-.39-.39-.39-1.023 0-1.414s1.023-.39 1.414 0L35.65 22.92c.39.39.39 1.023 0 1.414L13.02 46.962c-.195.195-.45.293-.706.293z"/></symbol></svg>