<?xml version="1.0" encoding="UTF-8"?>
<!DOCTYPE svg PUBLIC "-//W3C//DTD SVG 1.1//EN" "http://www.w3.org/Graphics/SVG/1.1/DTD/svg11.dtd">
<!-- Creator: CorelDRAW X6 -->
<svg xmlns="http://www.w3.org/2000/svg" xml:space="preserve" width="18px" height="18px" version="1.1" style="shape-rendering:geometricPrecision; text-rendering:geometricPrecision; image-rendering:optimizeQuality; fill-rule:evenodd; clip-rule:evenodd"
viewBox="0 0 1800 1800"
 xmlns:xlink="http://www.w3.org/1999/xlink">
 <g id="Слой_x0020_1">
  <metadata id="CorelCorpID_0Corel-Layer"/>
  <path fill="currentColor" d="M153 88c0,0 89,-101 171,-61 82,39 381,355 378,407 -3,53 -79,175 -128,184 -50,10 -60,56 -50,83 19,174 484,549 530,559 46,9 167,13 181,-33 13,-46 16,-115 78,-115 63,0 441,256 457,358 17,102 -82,278 -212,297 -128,20 -292,19 -491,-54 -199,-72 -513,-350 -621,-457 -109,-107 -313,-388 -352,-486 -40,-99 -80,-327 -62,-421 14,-138 79,-220 121,-261z"/>
 </g>
</svg>
