<svg xmlns="http://www.w3.org/2000/svg" width="932.15" height="932.15" viewBox="0 0 932.15 932.15"><g fill="currentColor"><path d="M466.075 161.525c-205.6 0-382.8 121.2-464.2 296.1-2.5 5.3-2.5 11.5 0 16.9 81.4 174.9 258.6 296.1 464.2 296.1s382.8-121.2 464.2-296.1c2.5-5.3 2.5-11.5 0-16.9-81.4-174.9-258.6-296.1-464.2-296.1zm0 514.7c-116.1 0-210.1-94.1-210.1-210.1 0-116.1 94.1-210.1 210.1-210.1 116.1 0 210.1 94.1 210.1 210.1s-94.1 210.1-210.1 210.1z"/><circle cx="466.075" cy="466.025" r="134.5"/></g></svg>