<svg xmlns="http://www.w3.org/2000/svg" width="18" height="18" viewBox="0 0 1800 1800" shape-rendering="geometricPrecision" text-rendering="geometricPrecision" image-rendering="optimizeQuality" fill-rule="evenodd" clip-rule="evenodd"><path fill="currentColor" d="M153 88s89-101 171-61c82 39 381 355 378 407-3 53-79 175-128 184-50 10-60 56-50 83 19 174 484 549 530 559 46 9 167 13 181-33 13-46 16-115 78-115 63 0 441 256 457 358 17 102-82 278-212 297-128 20-292 19-491-54-199-72-513-350-621-457-109-107-313-388-352-486-40-99-80-327-62-421 14-138 79-220 121-261z"/></svg>